<svg xmlns="http://www.w3.org/2000/svg" width="1200" height="630" viewBox="0 0 1200 630" role="img" aria-labelledby="title desc">
  <title id="title">孙学 × 薄肌 × 黄毛理论 · MapFirst</title>
  <desc id="desc">面向 20–30 岁的行动与就业指南，融合孙学、薄肌、黄毛理论。</desc>
  <rect width="1200" height="630" fill="#10191b"/>
  <g stroke="#334345" stroke-width="1" opacity=".8">
    <path d="M0 70H1200M0 140H1200M0 210H1200M0 280H1200M0 350H1200M0 420H1200M0 490H1200M0 560H1200"/>
    <path d="M70 0V630M140 0V630M210 0V630M280 0V630M350 0V630M420 0V630M490 0V630M560 0V630M630 0V630M700 0V630M770 0V630M840 0V630M910 0V630M980 0V630M1050 0V630M1120 0V630"/>
  </g>
  <rect x="62" y="53" width="52" height="52" fill="#ccfa50"/>
  <text x="72" y="88" fill="#10191b" font-size="30" font-weight="800" font-family="Arial,sans-serif">M↗</text>
  <text x="128" y="87" fill="#f5f5ed" font-size="25" font-weight="800" font-family="Arial,sans-serif" letter-spacing="4">MAPFIRST</text>
  <text x="66" y="250" fill="#f5f5ed" font-size="80" font-weight="700" font-family="'Microsoft YaHei',sans-serif">20–30 岁，</text>
  <text x="66" y="365" fill="#ccfa50" font-size="95" font-weight="700" font-family="'Microsoft YaHei',sans-serif">先行动。</text>
  <text x="70" y="432" fill="#b4c2ba" font-size="27" font-family="'Microsoft YaHei',sans-serif">孙学 × 薄肌 × 黄毛理论 · 行动与就业指南</text>
  <text x="70" y="559" fill="#ccfa50" font-size="19" font-family="Arial,sans-serif" letter-spacing="3">MAP  →  BUILD  →  FEEDBACK  →  UPDATE</text>
  <circle cx="955" cy="305" r="215" fill="none" stroke="#7d9185" stroke-width="2" stroke-dasharray="8 12"/>
  <circle cx="955" cy="305" r="150" fill="none" stroke="#ccfa50" stroke-width="2"/>
  <circle cx="955" cy="305" r="82" fill="#ccfa50"/>
  <text x="955" y="324" fill="#10191b" text-anchor="middle" font-size="64" font-family="Georgia,serif">?</text>
  <g fill="#f5f5ed" font-family="'Microsoft YaHei',sans-serif" font-size="25" font-weight="700">
    <text x="899" y="120">探图</text><text x="1090" y="309">试验</text><text x="902" y="518">复盘</text><text x="768" y="309">更新</text>
  </g>
</svg>

